# xmcd CD database file
#
# Track frame offsets:
#	150
#	15117
#	34039
#	52961
#	71883
#	84566
#	101302
#	117701
#	131227
#	141247
#	171514
#	186879
#	199534
#	233700
#	254967
#	276613
#
# Disc length: 4294 seconds
#
# Revision: 0
# Processed by: cddbd v1.5.1PL0 Copyright (c) Steve Scherf et al.
# Submitted via: CDex 1.50
#
DISCID=f210c410
DTITLE=Jazz - Mix
DYEAR=1900
DGENRE=Jazz
TTITLE0=Ain't she sweet
TTITLE1=Creole love call
TTITLE2=Harlem bound
TTITLE3=Street Band
TTITLE4=Dreaming
TTITLE5=Static Strut
TTITLE6=Angry
TTITLE7=Shake it
TTITLE8=Long Deep
TTITLE9=Tiger Rag
TTITLE10=Amen
TTITLE11=Over in Gloryland
TTITLE12=Good Blues
TTITLE13=His Eye
TTITLE14=Bill Baley
TTITLE15=Panama
EXTD=
EXTT0=
EXTT1=
EXTT2=
EXTT3=
EXTT4=
EXTT5=
EXTT6=
EXTT7=
EXTT8=
EXTT9=
EXTT10=
EXTT11=
EXTT12=
EXTT13=
EXTT14=
EXTT15=
PLAYORDER=
